{
	"asset":{
		"version":"2.0",
		"generator":"Created using the official Cinema 4D glTF Exporter 1.000x284978"
	},
	"scenes":[{
		"nodes":[0,
		1]
	}],
	"nodes":[{
		"scale":[1.0,
		1.0,
		1.0],
		"name":"Camera",
		"camera":0,
		"translation":[656.0183715820313,
		565.1220703125,
		701.1734008789063],
		"rotation":[0.2273806631565094,
		-0.3594132661819458,
		-0.09075453132390976,
		-0.9004908204078674]
	},
	{
		"scale":[1.0,
		1.0,
		1.0],
		"name":"MAIN",
		"translation":[0.0,
		0.0,
		0.0],
		"rotation":[-0.025526896119117738,
		-0.06885489076375961,
		0.015225439332425595,
		-0.9971837997436523],
		"children":[2,
		3,
		4,
		5,
		6,
		7,
		8,
		9,
		10]
	},
	{
		"name":"Null.8",
		"children":[11]
	},
	{
		"scale":[1.0,
		1.0,
		1.0],
		"name":"Null.9A",
		"translation":[0.0,
		0.0,
		0.0],
		"rotation":[0.0,
		-0.7071067690849304,
		0.0,
		-0.7071067690849304],
		"children":[12]
	},
	{
		"scale":[1.0,
		1.0,
		1.0],
		"name":"Null.6",
		"translation":[0.0,
		0.0,
		0.0],
		"rotation":[0.7071067690849304,
		-4.329780301713277e-17,
		-0.7071067690849304,
		4.329780301713277e-17],
		"children":[13]
	},
	{
		"scale":[1.0,
		1.0,
		1.0],
		"name":"Null.9",
		"translation":[0.0,
		0.0,
		0.0],
		"rotation":[-0.5,
		0.5,
		0.5,
		0.5],
		"children":[14]
	},
	{
		"scale":[1.0,
		1.0,
		1.0],
		"name":"Null.2",
		"translation":[0.0,
		0.0,
		0.0],
		"rotation":[0.0,
		-1.0,
		0.0,
		-6.123234262925839e-17],
		"children":[15]
	},
	{
		"scale":[1.0,
		1.0,
		1.0],
		"name":"Null.3",
		"translation":[0.0,
		0.0,
		0.0],
		"rotation":[0.0,
		-0.7071067690849304,
		0.0,
		0.7071067690849304],
		"children":[16]
	},
	{
		"scale":[1.0,
		1.0,
		1.0],
		"name":"Null.1A",
		"translation":[0.0,
		0.0,
		0.0],
		"rotation":[0.0,
		-0.7071067690849304,
		0.0,
		-0.7071067690849304],
		"children":[17]
	},
	{
		"scale":[1.0,
		1.0,
		1.0],
		"name":"Null.8B",
		"translation":[0.0,
		0.0,
		0.0],
		"rotation":[0.7071067690849304,
		-4.329780301713277e-17,
		-0.7071067690849304,
		4.329780301713277e-17],
		"children":[18]
	},
	{
		"scale":[1.0,
		1.0,
		1.0],
		"name":"Extrude",
		"translation":[0.0,
		130.0,
		0.0],
		"rotation":[0.0,
		0.0,
		0.0,
		-1.0],
		"children":[19]
	},
	{
		"scale":[1.0,
		1.0,
		1.0],
		"name":"Text",
		"translation":[250.0323028564453,
		11.831436157226563,
		4.081458326014474e-15],
		"rotation":[0.0,
		-0.7071067690849304,
		0.0,
		0.7071067690849304],
		"children":[20]
	},
	{
		"scale":[1.0,
		1.0,
		1.0],
		"name":"Text",
		"translation":[120.8182601928711,
		130.07737731933595,
		1.19935367586259e-14],
		"rotation":[0.5,
		0.5,
		0.5,
		-0.5],
		"children":[21]
	},
	{
		"scale":[1.0,
		1.0,
		1.0],
		"name":"Text",
		"translation":[-54.79814529418945,
		0.8300551772117615,
		-189.6349639892578],
		"rotation":[0.5,
		0.5,
		0.5,
		-0.5],
		"children":[22]
	},
	{
		"scale":[1.0,
		1.0,
		1.0],
		"name":"Text",
		"translation":[114.734130859375,
		70.84781646728516,
		65.35164642333985],
		"rotation":[0.5,
		0.5,
		0.5,
		-0.5],
		"children":[23]
	},
	{
		"scale":[1.0,
		1.0,
		1.0],
		"name":"Text",
		"translation":[155.5281982421875,
		11.831436157226563,
		-70.34766387939453],
		"rotation":[0.0,
		-1.0,
		0.0,
		-6.123234262925839e-17],
		"children":[24]
	},
	{
		"scale":[1.0,
		1.0,
		1.0],
		"name":"Text",
		"translation":[250.0323028564453,
		11.831436157226563,
		4.081458326014474e-15],
		"rotation":[0.0,
		-0.7071067690849304,
		0.0,
		-0.7071067690849304],
		"children":[25]
	},
	{
		"scale":[1.0,
		1.0,
		1.0],
		"name":"Text",
		"translation":[250.0323028564453,
		11.831436157226563,
		4.081458326014474e-15],
		"rotation":[0.0,
		-0.7071067690849304,
		0.0,
		-0.7071067690849304],
		"children":[26]
	},
	{
		"scale":[1.0,
		1.0,
		1.0],
		"name":"Text",
		"translation":[-227.36106872558595,
		0.8300551772117615,
		1.5352089405059815],
		"rotation":[0.5,
		0.5,
		0.5,
		-0.5],
		"children":[27]
	},
	{
		"name":"Extrude",
		"mesh":0
	},
	{
		"scale":[1.0,
		1.0,
		1.0],
		"name":"Fill.3",
		"mesh":1,
		"translation":[1.0658141036401503e-14,
		52.705379486083987,
		-1.2434497875801754e-14],
		"rotation":[0.0,
		0.0,
		0.0,
		-1.0]
	},
	{
		"scale":[1.0,
		1.0,
		1.0],
		"name":"Fill.1",
		"mesh":2,
		"translation":[3.197442310920451e-14,
		51.327354431152347,
		2.4868995751603508e-14],
		"rotation":[-3.469446951953614e-18,
		-8.673617379884036e-19,
		3.009265538105056e-36,
		-1.0]
	},
	{
		"scale":[1.0,
		1.0,
		1.0],
		"name":"Fill.2",
		"mesh":3,
		"translation":[9.50350909079134e-14,
		51.092811584472659,
		2.220446049250313e-16],
		"rotation":[0.0,
		-1.3010426069826054e-18,
		0.0,
		-1.0]
	},
	{
		"scale":[1.0,
		1.0,
		1.0],
		"name":"Fill.1",
		"mesh":4,
		"translation":[1.0391687510491465e-13,
		51.42586898803711,
		2.842170943040401e-14],
		"rotation":[0.0,
		-4.336808689942018e-19,
		0.0,
		-1.0]
	},
	{
		"scale":[1.0,
		1.0,
		1.0],
		"name":"Fill",
		"mesh":5,
		"translation":[-23.155200958251954,
		53.79583740234375,
		-4.263256414560601e-14],
		"rotation":[0.0,
		0.0,
		0.0,
		-1.0]
	},
	{
		"scale":[1.0,
		1.0,
		1.0],
		"name":"Fill.2",
		"mesh":6,
		"translation":[5.684341886080802e-14,
		51.23481750488281,
		5.684341886080802e-14],
		"rotation":[0.0,
		0.0,
		0.0,
		-1.0]
	},
	{
		"scale":[1.0,
		1.0,
		1.0],
		"name":"Fill",
		"mesh":7,
		"translation":[0.569171130657196,
		53.91801834106445,
		-2.2737367544323208e-13],
		"rotation":[0.0,
		0.0,
		0.0,
		-1.0]
	},
	{
		"scale":[1.0,
		1.0,
		1.0],
		"name":"Fill.3",
		"mesh":8,
		"translation":[2.1316282072803007e-14,
		53.019630432128909,
		-5.3290705182007517e-15],
		"rotation":[0.0,
		0.0,
		0.0,
		-1.0]
	}],
	"accessors":[{
		"bufferView":0,
		"type":"SCALAR",
		"componentType":5126,
		"count":10,
		"byteOffset":0,
		"min":[0.0],
		"max":[17.0]
	},
	{
		"bufferView":0,
		"type":"VEC4",
		"componentType":5126,
		"count":10,
		"byteOffset":40,
		"min":[-0.05432771146297455,
		-0.8480077981948853,
		0.004793306812644005,
		-0.9991908669471741],
		"max":[0.4713711440563202,
		-0.03780341520905495,
		0.5870018601417542,
		0.03809870779514313]
	},
	{
		"bufferView":1,
		"type":"SCALAR",
		"componentType":5123,
		"count":2580,
		"byteOffset":0,
		"min":[0],
		"max":[911]
	},
	{
		"bufferView":2,
		"type":"VEC3",
		"componentType":5126,
		"count":912,
		"byteOffset":0,
		"min":[-250.0,
		-130.0,
		-250.0],
		"max":[250.0,
		0.0,
		250.0]
	},
	{
		"bufferView":2,
		"type":"VEC3",
		"componentType":5126,
		"count":912,
		"byteOffset":12,
		"min":[-1.0,
		-1.0,
		-1.0],
		"max":[1.0,
		1.0,
		1.0]
	},
	{
		"bufferView":2,
		"type":"VEC2",
		"componentType":5126,
		"count":912,
		"byteOffset":24,
		"min":[0.0,
		0.0],
		"max":[1.0,
		1.0]
	},
	{
		"bufferView":3,
		"type":"SCALAR",
		"componentType":5123,
		"count":720,
		"byteOffset":0,
		"min":[0],
		"max":[237]
	},
	{
		"bufferView":4,
		"type":"VEC3",
		"componentType":5126,
		"count":238,
		"byteOffset":0,
		"min":[-36.07291793823242,
		-43.55518341064453,
		1.1430495493267718e-13],
		"max":[36.07291793823242,
		43.55518341064453,
		1.171417970220398e-13]
	},
	{
		"bufferView":4,
		"type":"VEC3",
		"componentType":5126,
		"count":238,
		"byteOffset":12,
		"min":[0.0,
		0.0,
		1.0],
		"max":[0.0,
		0.0,
		1.0]
	},
	{
		"bufferView":4,
		"type":"VEC2",
		"componentType":5126,
		"count":238,
		"byteOffset":24,
		"min":[0.0,
		0.0],
		"max":[0.8282118439674377,
		1.0]
	},
	{
		"bufferView":5,
		"type":"SCALAR",
		"componentType":5123,
		"count":564,
		"byteOffset":0,
		"min":[0],
		"max":[187]
	},
	{
		"bufferView":6,
		"type":"VEC3",
		"componentType":5126,
		"count":188,
		"byteOffset":0,
		"min":[-37.723270416259769,
		-44.80422592163086,
		-6.489693358440255e-14],
		"max":[37.723270416259769,
		44.80422592163086,
		-6.328687302947084e-14]
	},
	{
		"bufferView":6,
		"type":"VEC3",
		"componentType":5126,
		"count":188,
		"byteOffset":12,
		"min":[0.0,
		0.0,
		1.0],
		"max":[0.0,
		0.0,
		1.0]
	},
	{
		"bufferView":6,
		"type":"VEC2",
		"componentType":5126,
		"count":188,
		"byteOffset":24,
		"min":[0.0,
		0.0],
		"max":[0.8419578075408936,
		1.0]
	},
	{
		"bufferView":7,
		"type":"SCALAR",
		"componentType":5123,
		"count":60,
		"byteOffset":0,
		"min":[0],
		"max":[21]
	},
	{
		"bufferView":8,
		"type":"VEC3",
		"componentType":5126,
		"count":22,
		"byteOffset":0,
		"min":[-33.369022369384769,
		-43.455810546875,
		2.1928514776572983e-13],
		"max":[33.369022369384769,
		43.455810546875,
		2.2209432914716693e-13]
	},
	{
		"bufferView":8,
		"type":"VEC3",
		"componentType":5126,
		"count":22,
		"byteOffset":12,
		"min":[0.0,
		0.0,
		1.0],
		"max":[0.0,
		0.0,
		1.0]
	},
	{
		"bufferView":8,
		"type":"VEC2",
		"componentType":5126,
		"count":22,
		"byteOffset":24,
		"min":[0.0,
		0.0],
		"max":[0.7678840160369873,
		1.0]
	},
	{
		"bufferView":9,
		"type":"SCALAR",
		"componentType":5123,
		"count":564,
		"byteOffset":0,
		"min":[0],
		"max":[187]
	},
	{
		"bufferView":10,
		"type":"VEC3",
		"componentType":5126,
		"count":188,
		"byteOffset":0,
		"min":[-37.723270416259769,
		-44.80422592163086,
		-7.961841364152733e-14],
		"max":[37.723270416259769,
		44.80422592163086,
		-7.69689487926245e-14]
	},
	{
		"bufferView":10,
		"type":"VEC3",
		"componentType":5126,
		"count":188,
		"byteOffset":12,
		"min":[0.0,
		0.0,
		1.0],
		"max":[0.0,
		0.0,
		1.0]
	},
	{
		"bufferView":10,
		"type":"VEC2",
		"componentType":5126,
		"count":188,
		"byteOffset":24,
		"min":[0.0,
		0.0],
		"max":[0.8419578075408936,
		1.0]
	},
	{
		"bufferView":11,
		"type":"SCALAR",
		"componentType":5123,
		"count":51,
		"byteOffset":0,
		"min":[0],
		"max":[18]
	},
	{
		"bufferView":12,
		"type":"VEC3",
		"componentType":5126,
		"count":19,
		"byteOffset":0,
		"min":[-21.329172134399415,
		-43.34841537475586,
		3.810103545599103e-13],
		"max":[21.329172134399415,
		43.34841537475586,
		3.856372957512094e-13]
	},
	{
		"bufferView":12,
		"type":"VEC3",
		"componentType":5126,
		"count":19,
		"byteOffset":12,
		"min":[0.0,
		0.0,
		1.0],
		"max":[0.0,
		0.0,
		1.0]
	},
	{
		"bufferView":12,
		"type":"VEC2",
		"componentType":5126,
		"count":19,
		"byteOffset":24,
		"min":[0.0,
		0.0],
		"max":[0.4920404553413391,
		1.0]
	},
	{
		"bufferView":13,
		"type":"SCALAR",
		"componentType":5123,
		"count":60,
		"byteOffset":0,
		"min":[0],
		"max":[21]
	},
	{
		"bufferView":14,
		"type":"VEC3",
		"componentType":5126,
		"count":22,
		"byteOffset":0,
		"min":[-33.369022369384769,
		-43.455810546875,
		2.1146588169776438e-13],
		"max":[33.369022369384769,
		43.455810546875,
		2.1414842826545517e-13]
	},
	{
		"bufferView":14,
		"type":"VEC3",
		"componentType":5126,
		"count":22,
		"byteOffset":12,
		"min":[0.0,
		0.0,
		1.0],
		"max":[0.0,
		0.0,
		1.0]
	},
	{
		"bufferView":14,
		"type":"VEC2",
		"componentType":5126,
		"count":22,
		"byteOffset":24,
		"min":[0.0,
		0.0],
		"max":[0.7678840160369873,
		1.0]
	},
	{
		"bufferView":15,
		"type":"SCALAR",
		"componentType":5123,
		"count":51,
		"byteOffset":0,
		"min":[0],
		"max":[18]
	},
	{
		"bufferView":16,
		"type":"VEC3",
		"componentType":5126,
		"count":19,
		"byteOffset":0,
		"min":[-21.329172134399415,
		-43.34841537475586,
		3.6133425353364337e-13],
		"max":[21.329172134399415,
		43.34841537475586,
		3.688980815697712e-13]
	},
	{
		"bufferView":16,
		"type":"VEC3",
		"componentType":5126,
		"count":19,
		"byteOffset":12,
		"min":[0.0,
		0.0,
		1.0],
		"max":[0.0,
		0.0,
		1.0]
	},
	{
		"bufferView":16,
		"type":"VEC2",
		"componentType":5126,
		"count":19,
		"byteOffset":24,
		"min":[0.0,
		0.0],
		"max":[0.4920404553413391,
		1.0]
	},
	{
		"bufferView":17,
		"type":"SCALAR",
		"componentType":5123,
		"count":720,
		"byteOffset":0,
		"min":[0],
		"max":[237]
	},
	{
		"bufferView":18,
		"type":"VEC3",
		"componentType":5126,
		"count":238,
		"byteOffset":0,
		"min":[-36.07291793823242,
		-43.55518341064453,
		4.303261441846243e-14],
		"max":[36.07291793823242,
		43.55518341064453,
		4.772450270802524e-14]
	},
	{
		"bufferView":18,
		"type":"VEC3",
		"componentType":5126,
		"count":238,
		"byteOffset":12,
		"min":[0.0,
		0.0,
		1.0],
		"max":[0.0,
		0.0,
		1.0]
	},
	{
		"bufferView":18,
		"type":"VEC2",
		"componentType":5126,
		"count":238,
		"byteOffset":24,
		"min":[0.0,
		0.0],
		"max":[0.8282118439674377,
		1.0]
	}],
	"meshes":[{
		"name":"Extrude",
		"primitives":[{
			"attributes":{
				"POSITION":3,
				"NORMAL":4,
				"TEXCOORD_0":5
			},
			"indices":2,
			"material":0
		}]
	},
	{
		"name":"Fill.3",
		"primitives":[{
			"attributes":{
				"POSITION":7,
				"NORMAL":8,
				"TEXCOORD_0":9
			},
			"indices":6,
			"material":1
		}]
	},
	{
		"name":"Fill.1",
		"primitives":[{
			"attributes":{
				"POSITION":11,
				"NORMAL":12,
				"TEXCOORD_0":13
			},
			"indices":10,
			"material":1
		}]
	},
	{
		"name":"Fill.2",
		"primitives":[{
			"attributes":{
				"POSITION":15,
				"NORMAL":16,
				"TEXCOORD_0":17
			},
			"indices":14,
			"material":1
		}]
	},
	{
		"name":"Fill.1",
		"primitives":[{
			"attributes":{
				"POSITION":19,
				"NORMAL":20,
				"TEXCOORD_0":21
			},
			"indices":18,
			"material":1
		}]
	},
	{
		"name":"Fill",
		"primitives":[{
			"attributes":{
				"POSITION":23,
				"NORMAL":24,
				"TEXCOORD_0":25
			},
			"indices":22,
			"material":1
		}]
	},
	{
		"name":"Fill.2",
		"primitives":[{
			"attributes":{
				"POSITION":27,
				"NORMAL":28,
				"TEXCOORD_0":29
			},
			"indices":26,
			"material":1
		}]
	},
	{
		"name":"Fill",
		"primitives":[{
			"attributes":{
				"POSITION":31,
				"NORMAL":32,
				"TEXCOORD_0":33
			},
			"indices":30,
			"material":1
		}]
	},
	{
		"name":"Fill.3",
		"primitives":[{
			"attributes":{
				"POSITION":35,
				"NORMAL":36,
				"TEXCOORD_0":37
			},
			"indices":34,
			"material":1
		}]
	}],
	"cameras":[{
		"type":"perspective",
		"perspective":{
			"znear":0.009999999776482582,
			"zfar":10000000000.0,
			"aspectRatio":1.7777777910232545,
			"yfov":0.5631968379020691
		}
	}],
	"bufferViews":[{
		"buffer":0,
		"byteOffset":0,
		"byteLength":200
	},
	{
		"buffer":1,
		"byteOffset":0,
		"byteLength":5160,
		"target":34963
	},
	{
		"buffer":1,
		"byteOffset":5160,
		"byteLength":29184,
		"target":34962,
		"byteStride":32
	},
	{
		"buffer":2,
		"byteOffset":0,
		"byteLength":1440,
		"target":34963
	},
	{
		"buffer":2,
		"byteOffset":1440,
		"byteLength":7616,
		"target":34962,
		"byteStride":32
	},
	{
		"buffer":3,
		"byteOffset":0,
		"byteLength":1128,
		"target":34963
	},
	{
		"buffer":3,
		"byteOffset":1128,
		"byteLength":6016,
		"target":34962,
		"byteStride":32
	},
	{
		"buffer":4,
		"byteOffset":0,
		"byteLength":120,
		"target":34963
	},
	{
		"buffer":4,
		"byteOffset":120,
		"byteLength":704,
		"target":34962,
		"byteStride":32
	},
	{
		"buffer":5,
		"byteOffset":0,
		"byteLength":1128,
		"target":34963
	},
	{
		"buffer":5,
		"byteOffset":1128,
		"byteLength":6016,
		"target":34962,
		"byteStride":32
	},
	{
		"buffer":6,
		"byteOffset":0,
		"byteLength":102,
		"target":34963
	},
	{
		"buffer":6,
		"byteOffset":104,
		"byteLength":608,
		"target":34962,
		"byteStride":32
	},
	{
		"buffer":7,
		"byteOffset":0,
		"byteLength":120,
		"target":34963
	},
	{
		"buffer":7,
		"byteOffset":120,
		"byteLength":704,
		"target":34962,
		"byteStride":32
	},
	{
		"buffer":8,
		"byteOffset":0,
		"byteLength":102,
		"target":34963
	},
	{
		"buffer":8,
		"byteOffset":104,
		"byteLength":608,
		"target":34962,
		"byteStride":32
	},
	{
		"buffer":9,
		"byteOffset":0,
		"byteLength":1440,
		"target":34963
	},
	{
		"buffer":9,
		"byteOffset":1440,
		"byteLength":7616,
		"target":34962,
		"byteStride":32
	}],
	"buffers":[{
		"uri":"data:application/octet-stream;base64,",
		"byteLength":200
	},
	{
		"uri":"data:application/octet-stream;base64,",
		"byteLength":34344
	},
	{
		"uri":"data:application/octet-stream;base64,",
		"byteLength":9056
	},
	{
		"uri":"data:application/octet-stream;base64,",
		"byteLength":7144
	},
	{
		"uri":"data:application/octet-stream;base64,",
		"byteLength":824
	},
	{
		"uri":"data:application/octet-stream;base64,",
		"byteLength":7144
	},
	{
		"uri":"data:application/octet-stream;base64,",
		"byteLength":712
	},
	{
		"uri":"data:application/octet-stream;base64,",
		"byteLength":824
	},
	{
		"uri":"data:application/octet-stream;base64,",
		"byteLength":712
	},
	{
		"uri":"data:application/octet-stream;base64,",
		"byteLength":9056
	}],
	"materials":[{
		"pbrMetallicRoughness":{
			"baseColorFactor":[1.0,
			1.0,
			1.0,
			1.0],
			"metallicFactor":1.0,
			"roughnessFactor":1.0
		},
		"emissiveFactor":[0.0,
		0.0,
		0.0],
		"alphaMode":"OPAQUE",
		"doubleSided":false,
		"name":"Mat"
	},
	{
		"pbrMetallicRoughness":{
			"baseColorFactor":[1.0,
			1.0,
			1.0,
			1.0],
			"metallicFactor":1.0,
			"roughnessFactor":1.0
		},
		"emissiveFactor":[1.0,
		1.0,
		1.0],
		"alphaMode":"OPAQUE",
		"doubleSided":false,
		"name":"Mat.1"
	}],
	"animations":[{
		"samplers":[{
			"input":0,
			"interpolation":"LINEAR",
			"output":1
		}],
		"channels":[{
			"sampler":0,
			"target":{
				"node":1,
				"path":"rotation"
			}
		}]
	}]
}